<svg width="31" height="31" viewBox="0 0 31 31" fill="none" xmlns="http://www.w3.org/2000/svg">
<path d="M13.21 2.57324L14.7275 1.05566C15.3701 0.413086 16.4092 0.413086 17.0449 1.05566L30.334 14.3379C30.9766 14.9805 30.9766 16.0195 30.334 16.6553L17.0449 29.9443C16.4023 30.5869 15.3633 30.5869 14.7275 29.9443L13.21 28.4268C12.5605 27.7773 12.5742 26.7178 13.2373 26.082L21.4746 18.2344H1.82812C0.918945 18.2344 0.1875 17.5029 0.1875 16.5938V14.4062C0.1875 13.4971 0.918945 12.7656 1.82812 12.7656H21.4746L13.2373 4.91797C12.5674 4.28223 12.5537 3.22266 13.21 2.57324Z" fill="#253c78"/>
</svg>
