<svg width="23" height="25" viewBox="0 0 23 25" fill="none" xmlns="http://www.w3.org/2000/svg">
<path d="M2.67411 22.7609C-0.178917 19.8171 -0.125743 15.0699 2.74179 12.1368L12.984 1.66018C15.1478 -0.553296 18.6652 -0.553491 20.8292 1.66018C22.9723 3.85227 22.9749 7.38914 20.8292 9.58381L11.9011 18.7074C10.4433 20.1985 8.06156 20.1777 6.6285 18.6587C5.24789 17.1953 5.29218 14.8759 6.6994 13.4364L13.7181 6.26672C14.02 5.95842 14.5146 5.95315 14.8229 6.25496L15.9391 7.34768C16.2475 7.64954 16.2527 8.14417 15.9509 8.45247L8.93295 15.6215C8.69213 15.8678 8.67728 16.2771 8.90131 16.5146C9.11478 16.7409 9.45038 16.7447 9.66732 16.5227L18.5955 7.3991C19.5532 6.41951 19.5532 4.82463 18.595 3.84451C17.658 2.88616 16.1557 2.88567 15.2183 3.84451L4.97606 14.3211C3.27865 16.0574 3.25248 18.8679 4.91791 20.5864C6.57855 22.2999 9.26288 22.302 10.9266 20.6003L19.328 12.0066C19.6296 11.6981 20.1242 11.6925 20.4328 11.9941L21.5498 13.0861C21.8583 13.3877 21.864 13.8823 21.5623 14.1909L13.1609 22.7845C10.2519 25.76 5.54652 25.7248 2.67411 22.7609Z" fill="#253C78"/>
</svg>
