<svg width="17" height="17" viewBox="0 0 17 17" fill="none" xmlns="http://www.w3.org/2000/svg">
<path d="M15.0312 16.8125H1.96875C0.98498 16.8125 0.1875 16.015 0.1875 15.0312V1.96875C0.1875 0.98498 0.98498 0.1875 1.96875 0.1875H15.0312C16.015 0.1875 16.8125 0.98498 16.8125 1.96875V15.0312C16.8125 16.015 16.015 16.8125 15.0312 16.8125ZM7.43548 13.1736L14.2636 6.34547C14.4955 6.11361 14.4955 5.73765 14.2636 5.50579L13.4239 4.66612C13.1921 4.43426 12.8161 4.43422 12.5842 4.66612L7.01562 10.2347L4.41578 7.63483C4.18392 7.40297 3.80797 7.40297 3.57607 7.63483L2.73639 8.47451C2.50453 8.70637 2.50453 9.08232 2.73639 9.31418L6.59577 13.1736C6.82767 13.4055 7.20358 13.4055 7.43548 13.1736Z" fill="#253C78"/>
</svg>
