<?xml version="1.0" encoding="UTF-8" standalone="no"?><!DOCTYPE svg PUBLIC "-//W3C//DTD SVG 1.1//EN" "http://www.w3.org/Graphics/SVG/1.1/DTD/svg11.dtd"><svg width="100%" height="100%" viewBox="0 0 313 313" version="1.1" xmlns="http://www.w3.org/2000/svg" xmlns:xlink="http://www.w3.org/1999/xlink" xml:space="preserve" xmlns:serif="http://www.serif.com/" style="fill-rule:evenodd;clip-rule:evenodd;stroke-linejoin:round;stroke-miterlimit:2;"><path d="M173.463,60.9l-160.276,160.279l-12.941,74.159c-1.771,10.008 6.958,18.675 16.967,16.966l74.158,-13l160.279,-160.279c2.871,-2.867 2.871,-7.504 0,-10.375l-67.75,-67.75c-2.929,-2.867 -7.567,-2.867 -10.438,-0Z" style="fill:#253c78;"/><rect x="18.904" y="227.221" width="66.129" height="62.658" style="fill:#253c78;"/><path d="M75.746,207.446c-3.354,-3.354 -3.354,-8.725 -0,-12.083l93.996,-93.996c3.358,-3.355 8.729,-3.355 12.083,-0c3.358,3.358 3.358,8.729 0,12.087l-93.992,93.992c-3.358,3.358 -8.729,3.358 -12.087,-0Z" style="fill:#253c78;"/><path d="M303.896,86.721l-28.138,28.137c-2.866,2.867 -7.508,2.867 -10.375,0l-67.75,-67.75c-2.866,-2.871 -2.866,-7.508 0,-10.375l28.138,-28.137c11.416,-11.417 29.971,-11.417 41.446,-0l36.679,36.679c11.475,11.417 11.475,29.971 -0,41.446Z" style="fill:#253c78;"/><path d="M53.713,258.779l29.295,0l0,22.154l-39.366,6.896l-18.98,-18.983l6.896,-39.367l22.155,0l-0,29.3Z" style="fill:#fff;"/><path d="M181.846,113.433c3.358,-3.366 3.35,-8.825 -0.013,-12.183c-3.366,-3.358 -8.825,-3.35 -12.183,0.013l-94.029,94.241c-3.359,3.367 -3.354,8.825 0.012,12.183c3.367,3.359 8.825,3.351 12.18,-0.012l94.033,-94.242Z" style="fill:#fff;"/><path d="M197.421,47.008c-1.929,-1.912 -5.05,-1.895 -6.958,0.034l-6.925,6.991c-1.913,1.934 -1.896,5.05 0.033,6.963l68.5,67.837c1.933,1.913 5.05,1.896 6.958,-0.033l6.925,-6.992c1.913,-1.929 1.896,-5.05 -0.033,-6.958l-68.5,-67.842Z" style="fill:#fff;"/></svg>