<svg width="17" height="17" viewBox="0 0 17 17" fill="none" xmlns="http://www.w3.org/2000/svg">
<path d="M15.1268 6.4874H9.94315V1.30377C9.94315 0.667698 9.4273 0.151855 8.79123 0.151855H7.63931C7.00324 0.151855 6.4874 0.667698 6.4874 1.30377V6.4874H1.30377C0.667698 6.4874 0.151855 7.00324 0.151855 7.63931V8.79123C0.151855 9.4273 0.667698 9.94315 1.30377 9.94315H6.4874V15.1268C6.4874 15.7628 7.00324 16.2787 7.63931 16.2787H8.79123C9.4273 16.2787 9.94315 15.7628 9.94315 15.1268V9.94315H15.1268C15.7628 9.94315 16.2787 9.4273 16.2787 8.79123V7.63931C16.2787 7.00324 15.7628 6.4874 15.1268 6.4874Z" fill="#253C78"/>
</svg>
