<svg width="19" height="17" viewBox="0 0 19 17" fill="none" xmlns="http://www.w3.org/2000/svg">
<path d="M14.7826 7.60801L8.49238 1.31777C8.22514 1.05053 7.86269 0.900393 7.48475 0.900391H1.425C0.637984 0.900391 0 1.53837 0 2.32539V8.38514C1.97623e-06 8.76308 0.150137 9.12553 0.417377 9.39277L6.70762 15.683C7.26409 16.2395 8.16635 16.2395 8.72287 15.683L14.7826 9.62326C15.3391 9.06677 15.3391 8.16451 14.7826 7.60801ZM3.325 5.65039C2.53798 5.65039 1.9 5.01241 1.9 4.22539C1.9 3.43837 2.53798 2.80039 3.325 2.80039C4.11202 2.80039 4.75 3.43837 4.75 4.22539C4.75 5.01241 4.11202 5.65039 3.325 5.65039ZM18.5826 9.62326L12.5229 15.683C11.9664 16.2395 11.0641 16.2395 10.5076 15.683L10.4969 15.6723L15.6643 10.5049C16.169 10.0003 16.4469 9.32932 16.4469 8.61564C16.4469 7.90195 16.1689 7.23098 15.6643 6.72632L9.83835 0.900391H11.2848C11.6627 0.900393 12.0251 1.05053 12.2924 1.31777L18.5826 7.60801C19.1391 8.16451 19.1391 9.06677 18.5826 9.62326Z" fill="#253C78"/>
</svg>
